<svg width="180" height="156" viewBox="0 0 180 156" fill="none" xmlns="http://www.w3.org/2000/svg">
<path d="M6.60352 120.803V103.125H0V100.76H15.8867V103.125H9.25586V120.803H6.60352Z" fill="white"/>
<path d="M26.6602 116.127L29.2031 116.441C28.8021 117.927 28.0592 119.08 26.9746 119.9C25.89 120.721 24.5046 121.131 22.8184 121.131C20.6947 121.131 19.0085 120.479 17.7598 119.176C16.5202 117.863 15.9004 116.027 15.9004 113.666C15.9004 111.223 16.5293 109.327 17.7871 107.979C19.0449 106.63 20.6764 105.955 22.6816 105.955C24.623 105.955 26.209 106.616 27.4395 107.938C28.6699 109.259 29.2852 111.118 29.2852 113.516C29.2852 113.661 29.2806 113.88 29.2715 114.172H18.4434C18.5345 115.767 18.9857 116.988 19.7969 117.836C20.6081 118.684 21.6198 119.107 22.832 119.107C23.7344 119.107 24.5046 118.87 25.1426 118.396C25.7806 117.923 26.2865 117.166 26.6602 116.127ZM18.5801 112.148H26.6875C26.5781 110.927 26.2682 110.011 25.7578 109.4C24.974 108.452 23.9577 107.979 22.709 107.979C21.5788 107.979 20.6263 108.357 19.8516 109.113C19.0859 109.87 18.6621 110.882 18.5801 112.148Z" fill="white"/>
<path d="M32.375 106.283H36.2031L40.0176 117.904L44.2559 106.283H47.7969V120.803H45.3359V109.113L41.043 120.803H38.8418L34.7812 108.553V120.803H32.375V106.283Z" fill="white"/>
<path d="M61.0312 119.012C60.1198 119.786 59.2402 120.333 58.3926 120.652C57.554 120.971 56.6517 121.131 55.6855 121.131C54.0905 121.131 52.8646 120.743 52.0078 119.969C51.151 119.185 50.7227 118.187 50.7227 116.975C50.7227 116.264 50.8822 115.617 51.2012 115.033C51.5293 114.441 51.9531 113.967 52.4727 113.611C53.0013 113.256 53.5938 112.987 54.25 112.805C54.7331 112.677 55.4622 112.554 56.4375 112.436C58.4245 112.199 59.8874 111.916 60.8262 111.588C60.8353 111.251 60.8398 111.036 60.8398 110.945C60.8398 109.943 60.6074 109.236 60.1426 108.826C59.5137 108.27 58.5794 107.992 57.3398 107.992C56.1823 107.992 55.3255 108.197 54.7695 108.607C54.2227 109.008 53.8171 109.724 53.5527 110.754L51.1465 110.426C51.3652 109.396 51.7253 108.566 52.2266 107.938C52.7279 107.299 53.4525 106.812 54.4004 106.475C55.3483 106.128 56.4466 105.955 57.6953 105.955C58.9349 105.955 59.9421 106.101 60.7168 106.393C61.4915 106.684 62.0612 107.053 62.4258 107.5C62.7904 107.938 63.0456 108.493 63.1914 109.168C63.2734 109.587 63.3145 110.344 63.3145 111.438V114.719C63.3145 117.007 63.3646 118.456 63.4648 119.066C63.5742 119.668 63.7839 120.247 64.0938 120.803H61.5234C61.2682 120.292 61.1042 119.695 61.0312 119.012ZM60.8262 113.516C59.9329 113.88 58.5931 114.19 56.8066 114.445C55.7949 114.591 55.0794 114.755 54.6602 114.938C54.2409 115.12 53.9173 115.389 53.6895 115.744C53.4616 116.09 53.3477 116.478 53.3477 116.906C53.3477 117.562 53.5938 118.109 54.0859 118.547C54.5872 118.984 55.3164 119.203 56.2734 119.203C57.2214 119.203 58.0645 118.998 58.8027 118.588C59.541 118.169 60.0833 117.599 60.4297 116.879C60.694 116.323 60.8262 115.503 60.8262 114.418V113.516Z" fill="white"/>
<path d="M65.1875 106.283H76.9863V108.32H72.3105V120.803H69.8633V108.32H65.1875V106.283Z" fill="white"/>
<path d="M79.3379 106.283H81.7988V117.357L88.6211 106.283H91.2734V120.803H88.8125V109.797L81.9902 120.803H79.3379V106.283Z" fill="white"/>
<path d="M94.0762 106.283H96.5371V109.031C96.5371 110.216 96.6055 111.077 96.7422 111.615C96.888 112.144 97.2298 112.609 97.7676 113.01C98.3053 113.402 98.9798 113.598 99.791 113.598C100.721 113.598 101.924 113.352 103.4 112.859V106.283H105.861V120.803H103.4V114.951C101.887 115.425 100.475 115.662 99.1621 115.662C98.0592 115.662 97.084 115.384 96.2363 114.828C95.3978 114.263 94.8281 113.575 94.5273 112.764C94.2266 111.952 94.0762 111.059 94.0762 110.084V106.283Z" fill="white"/>
<path d="M119.52 116.127L122.062 116.441C121.661 117.927 120.919 119.08 119.834 119.9C118.749 120.721 117.364 121.131 115.678 121.131C113.554 121.131 111.868 120.479 110.619 119.176C109.38 117.863 108.76 116.027 108.76 113.666C108.76 111.223 109.389 109.327 110.646 107.979C111.904 106.63 113.536 105.955 115.541 105.955C117.482 105.955 119.068 106.616 120.299 107.938C121.529 109.259 122.145 111.118 122.145 113.516C122.145 113.661 122.14 113.88 122.131 114.172H111.303C111.394 115.767 111.845 116.988 112.656 117.836C113.467 118.684 114.479 119.107 115.691 119.107C116.594 119.107 117.364 118.87 118.002 118.396C118.64 117.923 119.146 117.166 119.52 116.127ZM111.439 112.148H119.547C119.438 110.927 119.128 110.011 118.617 109.4C117.833 108.452 116.817 107.979 115.568 107.979C114.438 107.979 113.486 108.357 112.711 109.113C111.945 109.87 111.521 110.882 111.439 112.148Z" fill="white"/>
<path d="M134.641 115.484L137.061 115.799C136.796 117.467 136.117 118.775 135.023 119.723C133.939 120.661 132.604 121.131 131.018 121.131C129.031 121.131 127.431 120.484 126.219 119.189C125.016 117.886 124.414 116.022 124.414 113.598C124.414 112.03 124.674 110.658 125.193 109.482C125.713 108.307 126.501 107.427 127.559 106.844C128.625 106.251 129.783 105.955 131.031 105.955C132.608 105.955 133.898 106.356 134.9 107.158C135.903 107.951 136.546 109.081 136.828 110.549L134.436 110.918C134.208 109.943 133.802 109.209 133.219 108.717C132.645 108.225 131.947 107.979 131.127 107.979C129.887 107.979 128.88 108.425 128.105 109.318C127.331 110.202 126.943 111.606 126.943 113.529C126.943 115.48 127.317 116.897 128.064 117.781C128.812 118.665 129.787 119.107 130.99 119.107C131.956 119.107 132.763 118.811 133.41 118.219C134.057 117.626 134.467 116.715 134.641 115.484Z" fill="white"/>
<path d="M139.152 106.283H141.613V112.559C142.397 112.559 142.944 112.408 143.254 112.107C143.573 111.807 144.038 110.932 144.648 109.482C145.132 108.334 145.523 107.577 145.824 107.213C146.125 106.848 146.471 106.602 146.863 106.475C147.255 106.347 147.884 106.283 148.75 106.283H149.242V108.32L148.559 108.307C147.911 108.307 147.497 108.402 147.314 108.594C147.123 108.794 146.831 109.391 146.439 110.385C146.066 111.333 145.724 111.989 145.414 112.354C145.104 112.718 144.626 113.051 143.979 113.352C145.036 113.634 146.075 114.618 147.096 116.305L149.789 120.803H147.082L144.457 116.305C143.919 115.402 143.45 114.81 143.049 114.527C142.648 114.236 142.169 114.09 141.613 114.09V120.803H139.152V106.283Z" fill="white"/>
<path d="M151.416 106.283H153.877V117.357L160.699 106.283H163.352V120.803H160.891V109.797L154.068 120.803H151.416V106.283Z" fill="white"/>
<path d="M165.416 120.803L170.721 113.256L165.812 106.283H168.889L171.117 109.688C171.536 110.335 171.874 110.877 172.129 111.314C172.53 110.713 172.899 110.18 173.236 109.715L175.684 106.283H178.623L173.605 113.119L179.006 120.803H175.984L173.004 116.291L172.211 115.074L168.396 120.803H165.416Z" fill="white"/>
<path d="M68.0449 148.24V146.312C69.084 146.303 69.7904 146.262 70.1641 146.189C70.5469 146.117 70.9069 145.898 71.2441 145.533C71.5814 145.169 71.75 144.713 71.75 144.166C71.75 143.501 71.5267 142.972 71.0801 142.58C70.6426 142.179 70.0729 141.979 69.3711 141.979C67.9857 141.979 67.015 142.794 66.459 144.426L64.1211 144.043C64.8503 141.318 66.6094 139.955 69.3984 139.955C70.9479 139.955 72.1602 140.379 73.0352 141.227C73.9193 142.074 74.3613 143.086 74.3613 144.262C74.3613 145.447 73.7871 146.39 72.6387 147.092C73.3678 147.484 73.9147 147.985 74.2793 148.596C74.6439 149.197 74.8262 149.913 74.8262 150.742C74.8262 152.046 74.3522 153.103 73.4043 153.914C72.4564 154.725 71.1302 155.131 69.4258 155.131C66.1172 155.131 64.1986 153.659 63.6699 150.715L65.9805 150.223C66.1901 151.152 66.6139 151.872 67.252 152.383C67.8991 152.893 68.6374 153.148 69.4668 153.148C70.2962 153.148 70.9844 152.916 71.5312 152.451C72.0872 151.977 72.3652 151.376 72.3652 150.646C72.3652 150.081 72.1921 149.589 71.8457 149.17C71.4994 148.751 71.1302 148.491 70.7383 148.391C70.3464 148.281 69.6354 148.227 68.6055 148.227C68.5234 148.227 68.3366 148.231 68.0449 148.24Z" fill="white"/>
<path d="M87.1582 153.012C86.2467 153.786 85.3672 154.333 84.5195 154.652C83.681 154.971 82.7786 155.131 81.8125 155.131C80.2174 155.131 78.9915 154.743 78.1348 153.969C77.278 153.185 76.8496 152.187 76.8496 150.975C76.8496 150.264 77.0091 149.617 77.3281 149.033C77.6562 148.441 78.0801 147.967 78.5996 147.611C79.1283 147.256 79.7207 146.987 80.377 146.805C80.86 146.677 81.5892 146.554 82.5645 146.436C84.5514 146.199 86.0143 145.916 86.9531 145.588C86.9622 145.251 86.9668 145.036 86.9668 144.945C86.9668 143.943 86.7344 143.236 86.2695 142.826C85.6406 142.27 84.7064 141.992 83.4668 141.992C82.3092 141.992 81.4525 142.197 80.8965 142.607C80.3496 143.008 79.944 143.724 79.6797 144.754L77.2734 144.426C77.4922 143.396 77.8522 142.566 78.3535 141.938C78.8548 141.299 79.5794 140.812 80.5273 140.475C81.4753 140.128 82.5736 139.955 83.8223 139.955C85.0619 139.955 86.069 140.101 86.8438 140.393C87.6185 140.684 88.1881 141.053 88.5527 141.5C88.9173 141.938 89.1725 142.493 89.3184 143.168C89.4004 143.587 89.4414 144.344 89.4414 145.438V148.719C89.4414 151.007 89.4915 152.456 89.5918 153.066C89.7012 153.668 89.9108 154.247 90.2207 154.803H87.6504C87.3952 154.292 87.2311 153.695 87.1582 153.012ZM86.9531 147.516C86.0599 147.88 84.7201 148.19 82.9336 148.445C81.9219 148.591 81.2064 148.755 80.7871 148.938C80.3678 149.12 80.0443 149.389 79.8164 149.744C79.5885 150.09 79.4746 150.478 79.4746 150.906C79.4746 151.562 79.7207 152.109 80.2129 152.547C80.7142 152.984 81.4434 153.203 82.4004 153.203C83.3483 153.203 84.1914 152.998 84.9297 152.588C85.668 152.169 86.2103 151.599 86.5566 150.879C86.821 150.323 86.9531 149.503 86.9531 148.418V147.516Z" fill="white"/>
<path d="M94.4727 140.283H105.902V154.803H103.455V142.32H96.9336V149.553C96.9336 151.239 96.8789 152.351 96.7695 152.889C96.6602 153.426 96.3594 153.896 95.8672 154.297C95.375 154.698 94.6641 154.898 93.7344 154.898C93.1602 154.898 92.4994 154.862 91.752 154.789V152.738H92.832C93.3424 152.738 93.707 152.688 93.9258 152.588C94.1445 152.479 94.2904 152.31 94.3633 152.082C94.4362 151.854 94.4727 151.111 94.4727 149.854V140.283Z" fill="white"/>
<path d="M119.096 153.012C118.184 153.786 117.305 154.333 116.457 154.652C115.618 154.971 114.716 155.131 113.75 155.131C112.155 155.131 110.929 154.743 110.072 153.969C109.215 153.185 108.787 152.187 108.787 150.975C108.787 150.264 108.947 149.617 109.266 149.033C109.594 148.441 110.018 147.967 110.537 147.611C111.066 147.256 111.658 146.987 112.314 146.805C112.798 146.677 113.527 146.554 114.502 146.436C116.489 146.199 117.952 145.916 118.891 145.588C118.9 145.251 118.904 145.036 118.904 144.945C118.904 143.943 118.672 143.236 118.207 142.826C117.578 142.27 116.644 141.992 115.404 141.992C114.247 141.992 113.39 142.197 112.834 142.607C112.287 143.008 111.882 143.724 111.617 144.754L109.211 144.426C109.43 143.396 109.79 142.566 110.291 141.938C110.792 141.299 111.517 140.812 112.465 140.475C113.413 140.128 114.511 139.955 115.76 139.955C116.999 139.955 118.007 140.101 118.781 140.393C119.556 140.684 120.126 141.053 120.49 141.5C120.855 141.938 121.11 142.493 121.256 143.168C121.338 143.587 121.379 144.344 121.379 145.438V148.719C121.379 151.007 121.429 152.456 121.529 153.066C121.639 153.668 121.848 154.247 122.158 154.803H119.588C119.333 154.292 119.169 153.695 119.096 153.012ZM118.891 147.516C117.997 147.88 116.658 148.19 114.871 148.445C113.859 148.591 113.144 148.755 112.725 148.938C112.305 149.12 111.982 149.389 111.754 149.744C111.526 150.09 111.412 150.478 111.412 150.906C111.412 151.562 111.658 152.109 112.15 152.547C112.652 152.984 113.381 153.203 114.338 153.203C115.286 153.203 116.129 152.998 116.867 152.588C117.605 152.169 118.148 151.599 118.494 150.879C118.758 150.323 118.891 149.503 118.891 148.418V147.516Z" fill="white"/>
<path d="M98.4551 59.4238H62.2246V43.0664L98.4551 0H115.789V43.9941H124.773V59.4238H115.789V72.8027H98.4551V59.4238ZM98.4551 43.9941V21.4844L79.3145 43.9941H98.4551Z" fill="#CD06FF"/>
</svg>
