<svg width="1172" height="746" viewBox="0 0 1172 746" fill="none" xmlns="http://www.w3.org/2000/svg">
<path opacity="0.2" fill-rule="evenodd" clip-rule="evenodd" d="M75.4931 693.186V662.218H144.132V723.112L143.696 723.409C130.895 732.115 119.51 738.091 109.548 741.297L109.545 741.299C99.6477 744.441 87.9261 746 74.3985 746C57.7297 746 44.0327 743.166 33.369 737.426L33.3667 737.425C22.7711 731.688 14.541 723.146 8.67963 711.834L8.67757 711.83C2.88323 700.524 0 687.572 0 673C0 657.663 3.17108 644.286 9.55137 632.903C15.9391 621.444 25.299 612.754 37.5985 606.843L37.6023 606.841C47.2451 602.256 60.1361 600 76.2073 600C91.6603 600 103.323 601.392 111.108 604.24C118.939 607.082 125.431 611.515 130.563 617.541C135.753 623.498 139.621 631.045 142.191 640.148L142.49 641.207L98.9449 648.962L98.6756 648.136C97.0226 643.066 94.228 639.238 90.3075 636.59L90.3016 636.586C86.4485 633.943 81.4576 632.582 75.2553 632.582C66.0618 632.582 58.7978 635.769 53.3575 642.112C48.0008 648.368 45.2202 658.434 45.2202 672.525C45.2202 687.519 48.039 697.98 53.4446 704.164C58.9327 710.369 66.5707 713.513 76.4929 713.513C81.2184 713.513 85.7169 712.831 89.9931 711.47C94.1513 710.147 98.931 707.907 104.338 704.728V693.186H75.4931ZM105.338 692.188V705.297C99.6898 708.653 94.676 711.028 90.2968 712.421C85.9177 713.814 81.3164 714.511 76.4929 714.511C66.3383 714.511 58.405 711.281 52.6931 704.822C47.0446 698.362 44.2203 687.597 44.2203 672.525C44.2203 658.34 47.0129 647.986 52.5979 641.463C58.2464 634.877 65.7989 631.584 75.2553 631.584C81.6019 631.584 86.8062 632.978 90.868 635.764C94.9933 638.55 97.9128 642.572 99.6264 647.828L141.228 640.418C141.137 640.095 141.044 639.774 140.95 639.455C138.414 630.895 134.699 623.807 129.805 618.191C124.791 612.301 118.444 607.964 110.765 605.177C103.149 602.391 91.6296 600.998 76.2073 600.998C60.2138 600.998 47.4889 603.246 38.0324 607.742C25.9103 613.568 16.7077 622.117 10.4246 633.389C4.14142 644.598 0.999837 657.802 0.999837 673C0.999837 687.438 3.85582 700.23 9.56778 711.376C15.3432 722.521 23.4351 730.912 33.8436 736.548C44.3155 742.184 57.8338 745.002 74.3985 745.002C87.8534 745.002 99.4677 743.451 109.241 740.348C119.079 737.182 130.376 731.26 143.132 722.585V663.216H76.4929V692.188H105.338ZM245.868 742.628L239.013 719.64H189.891L183.131 742.628H139.054L191.509 603.372H238.537L288.818 736.855V603.372H345.557L367.453 688.103L389.253 603.372H445.802V742.628H410.578V636.429L383.256 742.628H351.364L324.137 636.429V742.628H245.868ZM245.122 743.625L238.268 720.638H190.639L183.88 743.625H137.61L190.817 602.375H239.23L287.818 731.365V602.375H346.331L367.45 684.1L388.478 602.375H446.801V743.625H409.578V644.327L384.031 743.625H350.588L325.137 644.354V743.625H245.122ZM214.547 639.469L199.22 689.528H229.969L214.547 639.469ZM214.55 642.873L200.571 688.531H228.616L214.55 642.873ZM456.717 602.375H574.289V634.102H501.937V654.239H569.053V684.637H501.937V710.093H576.383V743.625H456.717V602.375ZM500.937 711.091V683.639H568.053V655.237H500.937V633.104H573.289V603.372H457.717V742.628H575.383V711.091H500.937ZM740.217 737.228L740.215 737.229C729.682 743.097 716.587 746 700.982 746C685.144 746 671.94 743.484 661.419 738.396L661.416 738.395C650.941 733.298 642.455 725.237 635.956 714.258C629.432 703.237 626.202 689.497 626.202 673.095C626.202 650.171 632.607 632.19 645.535 619.29C658.462 606.392 676.419 600 699.268 600C722.676 600 740.859 606.29 753.666 619.003C766.468 631.65 772.81 649.348 772.81 671.955C772.81 688.334 770.033 701.87 764.412 712.506C758.863 723.065 750.791 731.31 740.217 737.228ZM763.528 712.041C769.049 701.592 771.81 688.23 771.81 671.955C771.81 649.537 765.527 632.123 752.96 619.711C740.394 607.235 722.497 600.998 699.268 600.998C676.611 600.998 658.935 607.33 646.242 619.996C633.549 632.661 627.202 650.361 627.202 673.095C627.202 689.37 630.407 702.922 636.817 713.751C643.227 724.58 651.573 732.495 661.855 737.498C672.2 742.501 685.242 745.002 700.982 745.002C716.467 745.002 729.383 742.121 739.728 736.358C750.136 730.532 758.069 722.426 763.528 712.041ZM719.939 643.359L719.931 643.351C714.879 637.52 707.999 634.577 699.173 634.577C690.746 634.577 684.051 637.538 678.989 643.442C673.956 649.31 671.327 659.175 671.327 673.285C671.327 687.264 673.923 697.068 678.893 702.938C683.948 708.833 690.797 711.803 699.554 711.803C708.582 711.803 715.451 708.885 720.304 703.134C725.138 697.406 727.685 686.925 727.685 671.385C727.685 658.376 725.033 649.108 719.939 643.359ZM678.134 703.587C672.93 697.444 670.327 687.343 670.327 673.285C670.327 659.1 672.961 648.936 678.229 642.793C683.497 636.651 690.478 633.579 699.173 633.579C708.248 633.579 715.42 636.619 720.688 642.698C726.019 648.714 728.685 658.277 728.685 671.385C728.685 686.964 726.146 697.761 721.069 703.777C715.991 709.793 708.82 712.801 699.554 712.801C690.541 712.801 683.401 709.729 678.134 703.587ZM755.813 602.375H803.119L833.793 700.222L864.001 602.375H1023.69V634.102H951.339V654.239H1018.45V684.637H951.339V710.093H1025.78V743.625H906.119V612.727L857.438 743.625H809.309L755.813 602.375ZM907.119 607.171V742.628H1024.79V711.091H950.339V683.639H1017.45V655.237H950.339V633.104H1022.69V603.372H864.74L833.8 703.587L802.384 603.372H757.26L810 742.628H856.743L907.119 607.171ZM1032.08 743.625V602.375H1104.96C1118.32 602.375 1128.63 603.515 1135.83 605.843C1143.08 608.191 1148.94 612.569 1153.38 618.948C1157.83 625.287 1160.03 633.001 1160.03 642.033C1160.03 649.903 1158.35 656.765 1154.94 662.579L1154.94 662.584C1151.55 668.304 1146.9 672.949 1140.98 676.514L1140.47 675.66C1146.24 672.177 1150.78 667.649 1154.08 662.076C1157.38 656.44 1159.03 649.759 1159.03 642.033C1159.03 633.168 1156.87 625.663 1152.56 619.521C1148.24 613.315 1142.56 609.072 1135.52 606.792C1128.47 604.512 1118.29 603.372 1104.96 603.372H1033.08V742.628H1076.4V686.109H1080.21C1084.14 686.109 1087.66 687.185 1090.77 689.338C1093.06 690.985 1095.66 694.563 1098.58 700.072L1121.62 742.628H1170.36L1149.51 702.257C1148.5 700.23 1146.46 697.349 1143.42 693.613C1140.44 689.877 1138.15 687.438 1136.56 686.299C1134.49 684.791 1131.34 683.284 1127.1 681.777C1126.53 681.574 1125.94 681.372 1125.33 681.169C1125.95 681.028 1126.56 680.884 1127.15 680.736C1132.7 679.354 1137.14 677.662 1140.47 675.66L1140.98 676.514C1137.84 678.407 1133.77 680.011 1128.81 681.339C1132.41 682.697 1135.21 684.077 1137.15 685.489C1138.86 686.717 1141.22 689.253 1144.19 692.983C1147.24 696.724 1149.33 699.675 1150.4 701.805C1150.4 701.807 1150.4 701.809 1150.41 701.811L1172 743.625H1121.02L1097.7 700.546L1097.7 700.538C1094.79 695.046 1092.28 691.656 1090.2 690.153C1087.26 688.124 1083.94 687.106 1080.21 687.106H1077.4V743.625H1032.08ZM1105.8 656.921L1105.81 656.918C1108.42 656.397 1110.53 655.076 1112.16 652.925L1112.16 652.918L1112.17 652.912C1113.87 650.748 1114.72 648.275 1114.72 645.453C1114.72 641.184 1113.37 638.039 1110.79 635.861C1109.53 634.799 1107.64 633.947 1105.05 633.365C1102.46 632.785 1099.23 632.487 1095.34 632.487H1077.4V658.799H1094.58C1096.42 658.799 1100.12 658.194 1105.79 656.923L1105.8 656.921ZM1076.4 659.796V631.489H1095.34C1103.21 631.489 1108.58 632.693 1111.43 635.099C1114.29 637.505 1115.72 640.957 1115.72 645.453C1115.72 648.493 1114.8 651.184 1112.95 653.527C1111.18 655.87 1108.86 657.327 1106.01 657.897C1100.36 659.163 1096.55 659.796 1094.58 659.796H1076.4Z" fill="#CD06FF"/>
<path opacity="0.2" fill-rule="evenodd" clip-rule="evenodd" d="M75.4931 543.186V512.218H144.132V573.112L143.696 573.409C130.895 582.115 119.51 588.091 109.548 591.297L109.545 591.299C99.6477 594.441 87.9261 596 74.3985 596C57.7297 596 44.0327 593.166 33.369 587.426L33.3667 587.425C22.7711 581.688 14.541 573.146 8.67963 561.834L8.67757 561.83C2.88323 550.524 0 537.572 0 523C0 507.663 3.17108 494.286 9.55137 482.903C15.9391 471.444 25.299 462.754 37.5985 456.843L37.6023 456.841C47.2451 452.256 60.1361 450 76.2073 450C91.6603 450 103.323 451.392 111.108 454.24C118.939 457.082 125.431 461.515 130.563 467.541C135.753 473.498 139.621 481.045 142.191 490.148L142.49 491.207L98.9449 498.962L98.6756 498.136C97.0226 493.066 94.228 489.238 90.3075 486.59L90.3016 486.586C86.4485 483.943 81.4576 482.582 75.2553 482.582C66.0618 482.582 58.7978 485.769 53.3575 492.112C48.0008 498.368 45.2202 508.434 45.2202 522.525C45.2202 537.519 48.039 547.98 53.4446 554.164C58.9327 560.369 66.5707 563.513 76.4929 563.513C81.2184 563.513 85.7169 562.831 89.9931 561.47C94.1513 560.147 98.931 557.907 104.338 554.728V543.186H75.4931ZM105.338 542.188V555.297C99.6898 558.653 94.676 561.028 90.2968 562.421C85.9177 563.814 81.3164 564.511 76.4929 564.511C66.3383 564.511 58.405 561.281 52.6931 554.822C47.0446 548.362 44.2203 537.597 44.2203 522.525C44.2203 508.34 47.0129 497.986 52.5979 491.463C58.2464 484.877 65.7989 481.584 75.2553 481.584C81.6019 481.584 86.8062 482.978 90.868 485.764C94.9933 488.55 97.9128 492.572 99.6264 497.828L141.228 490.418C141.137 490.095 141.044 489.774 140.95 489.455C138.414 480.895 134.699 473.807 129.805 468.191C124.791 462.301 118.444 457.964 110.765 455.177C103.149 452.391 91.6296 450.998 76.2073 450.998C60.2138 450.998 47.4889 453.246 38.0324 457.742C25.9103 463.568 16.7077 472.117 10.4246 483.389C4.14142 494.598 0.999837 507.802 0.999837 523C0.999837 537.438 3.85582 550.23 9.56778 561.376C15.3432 572.521 23.4351 580.912 33.8436 586.548C44.3155 592.184 57.8338 595.002 74.3985 595.002C87.8534 595.002 99.4677 593.451 109.241 590.348C119.079 587.182 130.376 581.26 143.132 572.585V513.216H76.4929V542.188H105.338ZM245.868 592.628L239.013 569.64H189.891L183.131 592.628H139.054L191.509 453.372H238.537L288.818 586.855V453.372H345.557L367.453 538.103L389.253 453.372H445.802V592.628H410.578V486.429L383.256 592.628H351.364L324.137 486.429V592.628H245.868ZM245.122 593.625L238.268 570.638H190.639L183.88 593.625H137.61L190.817 452.375H239.23L287.818 581.365V452.375H346.331L367.45 534.1L388.478 452.375H446.801V593.625H409.578V494.327L384.031 593.625H350.588L325.137 494.354V593.625H245.122ZM214.547 489.469L199.22 539.528H229.969L214.547 489.469ZM214.55 492.873L200.571 538.531H228.616L214.55 492.873ZM456.717 452.375H574.289V484.102H501.937V504.239H569.053V534.637H501.937V560.093H576.383V593.625H456.717V452.375ZM500.937 561.091V533.639H568.053V505.237H500.937V483.104H573.289V453.372H457.717V592.628H575.383V561.091H500.937ZM740.217 587.228L740.215 587.229C729.682 593.097 716.587 596 700.982 596C685.144 596 671.94 593.484 661.419 588.396L661.416 588.395C650.941 583.298 642.455 575.237 635.956 564.258C629.432 553.237 626.202 539.497 626.202 523.095C626.202 500.171 632.607 482.19 645.535 469.29C658.462 456.392 676.419 450 699.268 450C722.676 450 740.859 456.29 753.666 469.003C766.468 481.65 772.81 499.348 772.81 521.955C772.81 538.334 770.033 551.87 764.412 562.506C758.863 573.065 750.791 581.31 740.217 587.228ZM763.528 562.041C769.049 551.592 771.81 538.23 771.81 521.955C771.81 499.537 765.527 482.123 752.96 469.711C740.394 457.235 722.497 450.998 699.268 450.998C676.611 450.998 658.935 457.33 646.242 469.996C633.549 482.661 627.202 500.361 627.202 523.095C627.202 539.37 630.407 552.922 636.817 563.751C643.227 574.58 651.573 582.495 661.855 587.498C672.2 592.501 685.242 595.002 700.982 595.002C716.467 595.002 729.383 592.121 739.728 586.358C750.136 580.532 758.069 572.426 763.528 562.041ZM719.939 493.359L719.931 493.351C714.879 487.52 707.999 484.577 699.173 484.577C690.746 484.577 684.051 487.538 678.989 493.442C673.956 499.31 671.327 509.175 671.327 523.285C671.327 537.264 673.923 547.068 678.893 552.938C683.948 558.833 690.797 561.803 699.554 561.803C708.582 561.803 715.451 558.885 720.304 553.134C725.138 547.406 727.685 536.925 727.685 521.385C727.685 508.376 725.033 499.108 719.939 493.359ZM678.134 553.587C672.93 547.444 670.327 537.343 670.327 523.285C670.327 509.1 672.961 498.936 678.229 492.793C683.497 486.651 690.478 483.579 699.173 483.579C708.248 483.579 715.42 486.619 720.688 492.698C726.019 498.714 728.685 508.277 728.685 521.385C728.685 536.964 726.146 547.761 721.069 553.777C715.991 559.793 708.82 562.801 699.554 562.801C690.541 562.801 683.401 559.729 678.134 553.587ZM755.813 452.375H803.119L833.793 550.222L864.001 452.375H1023.69V484.102H951.339V504.239H1018.45V534.637H951.339V560.093H1025.78V593.625H906.119V462.727L857.438 593.625H809.309L755.813 452.375ZM907.119 457.171V592.628H1024.79V561.091H950.339V533.639H1017.45V505.237H950.339V483.104H1022.69V453.372H864.74L833.8 553.587L802.384 453.372H757.26L810 592.628H856.743L907.119 457.171ZM1032.08 593.625V452.375H1104.96C1118.32 452.375 1128.63 453.515 1135.83 455.843C1143.08 458.191 1148.94 462.569 1153.38 468.948C1157.83 475.287 1160.03 483.001 1160.03 492.033C1160.03 499.903 1158.35 506.765 1154.94 512.579L1154.94 512.584C1151.55 518.304 1146.9 522.949 1140.98 526.514L1140.47 525.66C1146.24 522.177 1150.78 517.649 1154.08 512.076C1157.38 506.44 1159.03 499.759 1159.03 492.033C1159.03 483.168 1156.87 475.663 1152.56 469.521C1148.24 463.315 1142.56 459.072 1135.52 456.792C1128.47 454.512 1118.29 453.372 1104.96 453.372H1033.08V592.628H1076.4V536.109H1080.21C1084.14 536.109 1087.66 537.185 1090.77 539.338C1093.06 540.985 1095.66 544.563 1098.58 550.072L1121.62 592.628H1170.36L1149.51 552.257C1148.5 550.23 1146.46 547.349 1143.42 543.613C1140.44 539.877 1138.15 537.438 1136.56 536.299C1134.49 534.791 1131.34 533.284 1127.1 531.777C1126.53 531.574 1125.94 531.372 1125.33 531.169C1125.95 531.028 1126.56 530.884 1127.15 530.736C1132.7 529.354 1137.14 527.662 1140.47 525.66L1140.98 526.514C1137.84 528.407 1133.77 530.011 1128.81 531.339C1132.41 532.697 1135.21 534.077 1137.15 535.489C1138.86 536.717 1141.22 539.253 1144.19 542.983C1147.24 546.724 1149.33 549.675 1150.4 551.805C1150.4 551.807 1150.4 551.809 1150.41 551.811L1172 593.625H1121.02L1097.7 550.546L1097.7 550.538C1094.79 545.046 1092.28 541.656 1090.2 540.153C1087.26 538.124 1083.94 537.106 1080.21 537.106H1077.4V593.625H1032.08ZM1105.8 506.921L1105.81 506.918C1108.42 506.397 1110.53 505.076 1112.16 502.925L1112.16 502.918L1112.17 502.912C1113.87 500.748 1114.72 498.275 1114.72 495.453C1114.72 491.184 1113.37 488.039 1110.79 485.861C1109.53 484.799 1107.64 483.947 1105.05 483.365C1102.46 482.785 1099.23 482.487 1095.34 482.487H1077.4V508.799H1094.58C1096.42 508.799 1100.12 508.194 1105.79 506.923L1105.8 506.921ZM1076.4 509.796V481.489H1095.34C1103.21 481.489 1108.58 482.693 1111.43 485.099C1114.29 487.505 1115.72 490.957 1115.72 495.453C1115.72 498.493 1114.8 501.184 1112.95 503.527C1111.18 505.87 1108.86 507.327 1106.01 507.897C1100.36 509.163 1096.55 509.796 1094.58 509.796H1076.4Z" fill="#CD06FF"/>
<path opacity="0.2" fill-rule="evenodd" clip-rule="evenodd" d="M75.4931 93.1856V62.2184H144.132V123.112L143.696 123.409C130.895 132.115 119.51 138.091 109.548 141.297L109.545 141.299C99.6477 144.441 87.9261 146 74.3985 146C57.7297 146 44.0327 143.166 33.369 137.426L33.3667 137.425C22.7711 131.688 14.541 123.146 8.67963 111.834L8.67757 111.83C2.88323 100.524 0 87.5721 0 73C0 57.6629 3.17108 44.2858 9.55137 32.9032C15.9391 21.444 25.299 12.7545 37.5985 6.84312L37.6023 6.8413C47.2451 2.2565 60.1361 0 76.2073 0C91.6603 0 103.323 1.39208 111.108 4.2402C118.939 7.08173 125.431 11.5146 130.563 17.5407C135.753 23.4981 139.621 31.0454 142.191 40.148L142.49 41.2072L98.9449 48.9624L98.6756 48.1363C97.0226 43.0662 94.228 39.2381 90.3075 36.5901L90.3016 36.5861C86.4485 33.9429 81.4576 32.582 75.2553 32.582C66.0618 32.582 58.7978 35.7688 53.3575 42.112C48.0008 48.3685 45.2202 58.4339 45.2202 72.525C45.2202 87.5195 48.039 97.9804 53.4446 104.164C58.9327 110.369 66.5707 113.513 76.4929 113.513C81.2184 113.513 85.7169 112.831 89.9931 111.47C94.1513 110.147 98.931 107.907 104.338 104.728V93.1856H75.4931ZM105.338 92.188V105.297C99.6898 108.653 94.676 111.028 90.2968 112.421C85.9177 113.814 81.3164 114.511 76.4929 114.511C66.3383 114.511 58.405 111.281 52.6931 104.822C47.0446 98.3623 44.2203 87.5968 44.2203 72.525C44.2203 58.3399 47.0129 47.986 52.5979 41.4633C58.2464 34.8774 65.7989 31.5844 75.2553 31.5844C81.6019 31.5844 86.8062 32.9776 90.868 35.7639C94.9933 38.5503 97.9128 42.5716 99.6264 47.8277L141.228 40.4185C141.137 40.0952 141.044 39.7739 140.95 39.4547C138.414 30.8954 134.699 23.8074 129.805 18.1908C124.791 12.3014 118.444 7.96357 110.765 5.17719C103.149 2.39082 91.6296 0.997638 76.2073 0.997638C60.2138 0.997638 47.4889 3.24573 38.0324 7.74192C25.9103 13.568 16.7077 22.1171 10.4246 33.3892C4.14142 44.598 0.999837 57.8016 0.999837 73C0.999837 87.4385 3.85582 100.23 9.56778 111.376C15.3432 122.521 23.4351 130.912 33.8436 136.548C44.3155 142.184 57.8338 145.002 74.3985 145.002C87.8534 145.002 99.4677 143.451 109.241 140.348C119.079 137.182 130.376 131.26 143.132 122.585V63.216H76.4929V92.188H105.338ZM245.868 142.628L239.013 119.64H189.891L183.131 142.628H139.054L191.509 3.37239H238.537L288.818 136.855V3.37239H345.557L367.453 88.1034L389.253 3.37239H445.802V142.628H410.578V36.4289L383.256 142.628H351.364L324.137 36.4289V142.628H245.868ZM245.122 143.625L238.268 120.638H190.639L183.88 143.625H137.61L190.817 2.37475H239.23L287.818 131.365V2.37475H346.331L367.45 84.0996L388.478 2.37475H446.801V143.625H409.578V44.3274L384.031 143.625H350.588L325.137 44.3542V143.625H245.122ZM214.547 39.4686L199.22 89.5282H229.969L214.547 39.4686ZM214.55 42.8734L200.571 88.5306H228.616L214.55 42.8734ZM456.717 2.37475H574.289V34.1019H501.937V54.2392H569.053V84.6365H501.937V110.093H576.383V143.625H456.717V2.37475ZM500.937 111.091V83.6389H568.053V55.2369H500.937V33.1042H573.289V3.37239H457.717V142.628H575.383V111.091H500.937ZM740.217 137.228L740.215 137.229C729.682 143.097 716.587 146 700.982 146C685.144 146 671.94 143.484 661.419 138.396L661.416 138.395C650.941 133.298 642.455 125.237 635.956 114.258C629.432 103.237 626.202 89.497 626.202 73.095C626.202 50.171 632.607 32.1896 645.535 19.2902C658.462 6.39178 676.419 0 699.268 0C722.676 0 740.859 6.28967 753.666 19.0034C766.468 31.6501 772.81 49.3481 772.81 71.9551C772.81 88.3341 770.033 101.87 764.412 112.506C758.863 123.065 750.791 131.31 740.217 137.228ZM763.528 112.041C769.049 101.592 771.81 88.23 771.81 71.9551C771.81 49.5375 765.527 32.1227 752.96 19.7107C740.394 7.23531 722.497 0.997638 699.268 0.997638C676.611 0.997638 658.935 7.3303 646.242 19.9956C633.549 32.6609 627.202 50.3607 627.202 73.095C627.202 89.3699 630.407 102.922 636.817 113.751C643.227 124.58 651.573 132.495 661.855 137.498C672.2 142.501 685.242 145.002 700.982 145.002C716.467 145.002 729.383 142.121 739.728 136.358C750.136 130.532 758.069 122.426 763.528 112.041ZM719.939 43.3591L719.931 43.3507C714.879 37.5198 707.999 34.5768 699.173 34.5768C690.746 34.5768 684.051 37.5384 678.989 43.4418C673.956 49.3101 671.327 59.1754 671.327 73.285C671.327 87.2635 673.923 97.0677 678.893 102.938C683.948 108.833 690.797 111.803 699.554 111.803C708.582 111.803 715.451 108.885 720.304 103.134C725.138 97.4059 727.685 86.9249 727.685 71.3852C727.685 58.3757 725.033 49.1077 719.939 43.3591ZM678.134 103.587C672.93 97.4441 670.327 87.3435 670.327 73.285C670.327 59.0998 672.961 48.9359 678.229 42.7932C683.497 36.6505 690.478 33.5792 699.173 33.5792C708.248 33.5792 715.42 36.6189 720.688 42.6982C726.019 48.7142 728.685 58.2766 728.685 71.3852C728.685 86.9635 726.146 97.7607 721.069 103.777C715.991 109.793 708.82 112.801 699.554 112.801C690.541 112.801 683.401 109.729 678.134 103.587ZM755.813 2.37475H803.119L833.793 100.222L864.001 2.37475H1023.69V34.1019H951.339V54.2392H1018.45V84.6365H951.339V110.093H1025.78V143.625H906.119V12.7275L857.438 143.625H809.309L755.813 2.37475ZM907.119 7.17129V142.628H1024.79V111.091H950.339V83.6389H1017.45V55.2369H950.339V33.1042H1022.69V3.37239H864.74L833.8 103.587L802.384 3.37239H757.26L810 142.628H856.743L907.119 7.17129ZM1032.08 143.625V2.37475H1104.96C1118.32 2.37475 1128.63 3.51498 1135.83 5.84305C1143.08 8.19126 1148.94 12.5691 1153.38 18.948C1157.83 25.2873 1160.03 33.0008 1160.03 42.0333C1160.03 49.9033 1158.35 56.7647 1154.94 62.5794L1154.94 62.5837C1151.55 68.3042 1146.9 72.9488 1140.98 76.5135L1140.47 75.6597C1146.24 72.1768 1150.78 67.6489 1154.08 62.0762C1157.38 56.4401 1159.03 49.7591 1159.03 42.0333C1159.03 33.1676 1156.87 25.6634 1152.56 19.5207C1148.24 13.3147 1142.56 9.07178 1135.52 6.79202C1128.47 4.51226 1118.29 3.37239 1104.96 3.37239H1033.08V142.628H1076.4V86.1086H1080.21C1084.14 86.1086 1087.66 87.1852 1090.77 89.3383C1093.06 90.9848 1095.66 94.5627 1098.58 100.072L1121.62 142.628H1170.36L1149.51 102.257C1148.5 100.23 1146.46 97.3491 1143.42 93.6128C1140.44 89.8765 1138.15 87.4385 1136.56 86.2986C1134.49 84.7913 1131.34 83.2841 1127.1 81.7768C1126.53 81.5743 1125.94 81.3717 1125.33 81.1691C1125.95 81.0284 1126.56 80.8842 1127.15 80.7364C1132.7 79.3543 1137.14 77.6621 1140.47 75.6597L1140.98 76.5135C1137.84 78.4071 1133.77 80.0106 1128.81 81.3391C1132.41 82.6974 1135.21 84.0767 1137.15 85.489C1138.86 86.7172 1141.22 89.2534 1144.19 92.9832C1147.24 96.7241 1149.33 99.6746 1150.4 101.805C1150.4 101.807 1150.4 101.809 1150.41 101.811L1172 143.625H1121.02L1097.7 100.546L1097.7 100.538C1094.79 95.0456 1092.28 91.6557 1090.2 90.153C1087.26 88.124 1083.94 87.1062 1080.21 87.1062H1077.4V143.625H1032.08ZM1105.8 56.9206L1105.81 56.9183C1108.42 56.3968 1110.53 55.076 1112.16 52.9251L1112.16 52.9183L1112.17 52.9116C1113.87 50.7481 1114.72 48.2746 1114.72 45.4529C1114.72 41.1842 1113.37 38.0391 1110.79 35.8612C1109.53 34.7988 1107.64 33.9469 1105.05 33.3651C1102.46 32.785 1099.23 32.487 1095.34 32.487H1077.4V58.7988H1094.58C1096.42 58.7988 1100.12 58.1936 1105.79 56.9232L1105.8 56.9206ZM1076.4 59.7964V31.4894H1095.34C1103.21 31.4894 1108.58 32.6926 1111.43 35.099C1114.29 37.5054 1115.72 40.9567 1115.72 45.4529C1115.72 48.4926 1114.8 51.184 1112.95 53.5271C1111.18 55.8701 1108.86 57.3267 1106.01 57.8966C1100.36 59.1631 1096.55 59.7964 1094.58 59.7964H1076.4Z" fill="#CD06FF"/>
<path opacity="0.2" fill-rule="evenodd" clip-rule="evenodd" d="M75.4931 243.186V212.218H144.132V273.112L143.696 273.409C130.895 282.115 119.51 288.091 109.548 291.297L109.545 291.299C99.6477 294.441 87.9261 296 74.3985 296C57.7297 296 44.0327 293.166 33.369 287.426L33.3667 287.425C22.7711 281.688 14.541 273.146 8.67963 261.834L8.67757 261.83C2.88323 250.524 0 237.572 0 223C0 207.663 3.17108 194.286 9.55137 182.903C15.9391 171.444 25.299 162.754 37.5985 156.843L37.6023 156.841C47.2451 152.256 60.1361 150 76.2073 150C91.6603 150 103.323 151.392 111.108 154.24C118.939 157.082 125.431 161.515 130.563 167.541C135.753 173.498 139.621 181.045 142.191 190.148L142.49 191.207L98.9449 198.962L98.6756 198.136C97.0226 193.066 94.228 189.238 90.3075 186.59L90.3016 186.586C86.4485 183.943 81.4576 182.582 75.2553 182.582C66.0618 182.582 58.7978 185.769 53.3575 192.112C48.0008 198.368 45.2202 208.434 45.2202 222.525C45.2202 237.519 48.039 247.98 53.4446 254.164C58.9327 260.369 66.5707 263.513 76.4929 263.513C81.2184 263.513 85.7169 262.831 89.9931 261.47C94.1513 260.147 98.931 257.907 104.338 254.728V243.186H75.4931ZM105.338 242.188V255.297C99.6898 258.653 94.676 261.028 90.2968 262.421C85.9177 263.814 81.3164 264.511 76.4929 264.511C66.3383 264.511 58.405 261.281 52.6931 254.822C47.0446 248.362 44.2203 237.597 44.2203 222.525C44.2203 208.34 47.0129 197.986 52.5979 191.463C58.2464 184.877 65.7989 181.584 75.2553 181.584C81.6019 181.584 86.8062 182.978 90.868 185.764C94.9933 188.55 97.9128 192.572 99.6264 197.828L141.228 190.418C141.137 190.095 141.044 189.774 140.95 189.455C138.414 180.895 134.699 173.807 129.805 168.191C124.791 162.301 118.444 157.964 110.765 155.177C103.149 152.391 91.6296 150.998 76.2073 150.998C60.2138 150.998 47.4889 153.246 38.0324 157.742C25.9103 163.568 16.7077 172.117 10.4246 183.389C4.14142 194.598 0.999837 207.802 0.999837 223C0.999837 237.438 3.85582 250.23 9.56778 261.376C15.3432 272.521 23.4351 280.912 33.8436 286.548C44.3155 292.184 57.8338 295.002 74.3985 295.002C87.8534 295.002 99.4677 293.451 109.241 290.348C119.079 287.182 130.376 281.26 143.132 272.585V213.216H76.4929V242.188H105.338ZM245.868 292.628L239.013 269.64H189.891L183.131 292.628H139.054L191.509 153.372H238.537L288.818 286.855V153.372H345.557L367.453 238.103L389.253 153.372H445.802V292.628H410.578V186.429L383.256 292.628H351.364L324.137 186.429V292.628H245.868ZM245.122 293.625L238.268 270.638H190.639L183.88 293.625H137.61L190.817 152.375H239.23L287.818 281.365V152.375H346.331L367.45 234.1L388.478 152.375H446.801V293.625H409.578V194.327L384.031 293.625H350.588L325.137 194.354V293.625H245.122ZM214.547 189.469L199.22 239.528H229.969L214.547 189.469ZM214.55 192.873L200.571 238.531H228.616L214.55 192.873ZM456.717 152.375H574.289V184.102H501.937V204.239H569.053V234.637H501.937V260.093H576.383V293.625H456.717V152.375ZM500.937 261.091V233.639H568.053V205.237H500.937V183.104H573.289V153.372H457.717V292.628H575.383V261.091H500.937ZM740.217 287.228L740.215 287.229C729.682 293.097 716.587 296 700.982 296C685.144 296 671.94 293.484 661.419 288.396L661.416 288.395C650.941 283.298 642.455 275.237 635.956 264.258C629.432 253.237 626.202 239.497 626.202 223.095C626.202 200.171 632.607 182.19 645.535 169.29C658.462 156.392 676.419 150 699.268 150C722.676 150 740.859 156.29 753.666 169.003C766.468 181.65 772.81 199.348 772.81 221.955C772.81 238.334 770.033 251.87 764.412 262.506C758.863 273.065 750.791 281.31 740.217 287.228ZM763.528 262.041C769.049 251.592 771.81 238.23 771.81 221.955C771.81 199.537 765.527 182.123 752.96 169.711C740.394 157.235 722.497 150.998 699.268 150.998C676.611 150.998 658.935 157.33 646.242 169.996C633.549 182.661 627.202 200.361 627.202 223.095C627.202 239.37 630.407 252.922 636.817 263.751C643.227 274.58 651.573 282.495 661.855 287.498C672.2 292.501 685.242 295.002 700.982 295.002C716.467 295.002 729.383 292.121 739.728 286.358C750.136 280.532 758.069 272.426 763.528 262.041ZM719.939 193.359L719.931 193.351C714.879 187.52 707.999 184.577 699.173 184.577C690.746 184.577 684.051 187.538 678.989 193.442C673.956 199.31 671.327 209.175 671.327 223.285C671.327 237.264 673.923 247.068 678.893 252.938C683.948 258.833 690.797 261.803 699.554 261.803C708.582 261.803 715.451 258.885 720.304 253.134C725.138 247.406 727.685 236.925 727.685 221.385C727.685 208.376 725.033 199.108 719.939 193.359ZM678.134 253.587C672.93 247.444 670.327 237.343 670.327 223.285C670.327 209.1 672.961 198.936 678.229 192.793C683.497 186.651 690.478 183.579 699.173 183.579C708.248 183.579 715.42 186.619 720.688 192.698C726.019 198.714 728.685 208.277 728.685 221.385C728.685 236.964 726.146 247.761 721.069 253.777C715.991 259.793 708.82 262.801 699.554 262.801C690.541 262.801 683.401 259.729 678.134 253.587ZM755.813 152.375H803.119L833.793 250.222L864.001 152.375H1023.69V184.102H951.339V204.239H1018.45V234.637H951.339V260.093H1025.78V293.625H906.119V162.727L857.438 293.625H809.309L755.813 152.375ZM907.119 157.171V292.628H1024.79V261.091H950.339V233.639H1017.45V205.237H950.339V183.104H1022.69V153.372H864.74L833.8 253.587L802.384 153.372H757.26L810 292.628H856.743L907.119 157.171ZM1032.08 293.625V152.375H1104.96C1118.32 152.375 1128.63 153.515 1135.83 155.843C1143.08 158.191 1148.94 162.569 1153.38 168.948C1157.83 175.287 1160.03 183.001 1160.03 192.033C1160.03 199.903 1158.35 206.765 1154.94 212.579L1154.94 212.584C1151.55 218.304 1146.9 222.949 1140.98 226.514L1140.47 225.66C1146.24 222.177 1150.78 217.649 1154.08 212.076C1157.38 206.44 1159.03 199.759 1159.03 192.033C1159.03 183.168 1156.87 175.663 1152.56 169.521C1148.24 163.315 1142.56 159.072 1135.52 156.792C1128.47 154.512 1118.29 153.372 1104.96 153.372H1033.08V292.628H1076.4V236.109H1080.21C1084.14 236.109 1087.66 237.185 1090.77 239.338C1093.06 240.985 1095.66 244.563 1098.58 250.072L1121.62 292.628H1170.36L1149.51 252.257C1148.5 250.23 1146.46 247.349 1143.42 243.613C1140.44 239.877 1138.15 237.438 1136.56 236.299C1134.49 234.791 1131.34 233.284 1127.1 231.777C1126.53 231.574 1125.94 231.372 1125.33 231.169C1125.95 231.028 1126.56 230.884 1127.15 230.736C1132.7 229.354 1137.14 227.662 1140.47 225.66L1140.98 226.514C1137.84 228.407 1133.77 230.011 1128.81 231.339C1132.41 232.697 1135.21 234.077 1137.15 235.489C1138.86 236.717 1141.22 239.253 1144.19 242.983C1147.24 246.724 1149.33 249.675 1150.4 251.805C1150.4 251.807 1150.4 251.809 1150.41 251.811L1172 293.625H1121.02L1097.7 250.546L1097.7 250.538C1094.79 245.046 1092.28 241.656 1090.2 240.153C1087.26 238.124 1083.94 237.106 1080.21 237.106H1077.4V293.625H1032.08ZM1105.8 206.921L1105.81 206.918C1108.42 206.397 1110.53 205.076 1112.16 202.925L1112.16 202.918L1112.17 202.912C1113.87 200.748 1114.72 198.275 1114.72 195.453C1114.72 191.184 1113.37 188.039 1110.79 185.861C1109.53 184.799 1107.64 183.947 1105.05 183.365C1102.46 182.785 1099.23 182.487 1095.34 182.487H1077.4V208.799H1094.58C1096.42 208.799 1100.12 208.194 1105.79 206.923L1105.8 206.921ZM1076.4 209.796V181.489H1095.34C1103.21 181.489 1108.58 182.693 1111.43 185.099C1114.29 187.505 1115.72 190.957 1115.72 195.453C1115.72 198.493 1114.8 201.184 1112.95 203.527C1111.18 205.87 1108.86 207.327 1106.01 207.897C1100.36 209.163 1096.55 209.796 1094.58 209.796H1076.4Z" fill="#CD06FF"/>
<path opacity="0.2" fill-rule="evenodd" clip-rule="evenodd" d="M75.4931 393.186V362.218H144.132V423.112L143.696 423.409C130.895 432.115 119.51 438.091 109.548 441.297L109.545 441.299C99.6477 444.441 87.9261 446 74.3985 446C57.7297 446 44.0327 443.166 33.369 437.426L33.3667 437.425C22.7711 431.688 14.541 423.146 8.67963 411.834L8.67757 411.83C2.88323 400.524 0 387.572 0 373C0 357.663 3.17108 344.286 9.55137 332.903C15.9391 321.444 25.299 312.754 37.5985 306.843L37.6023 306.841C47.2451 302.256 60.1361 300 76.2073 300C91.6603 300 103.323 301.392 111.108 304.24C118.939 307.082 125.431 311.515 130.563 317.541C135.753 323.498 139.621 331.045 142.191 340.148L142.49 341.207L98.9449 348.962L98.6756 348.136C97.0226 343.066 94.228 339.238 90.3075 336.59L90.3016 336.586C86.4485 333.943 81.4576 332.582 75.2553 332.582C66.0618 332.582 58.7978 335.769 53.3575 342.112C48.0008 348.368 45.2202 358.434 45.2202 372.525C45.2202 387.519 48.039 397.98 53.4446 404.164C58.9327 410.369 66.5707 413.513 76.4929 413.513C81.2184 413.513 85.7169 412.831 89.9931 411.47C94.1513 410.147 98.931 407.907 104.338 404.728V393.186H75.4931ZM105.338 392.188V405.297C99.6898 408.653 94.676 411.028 90.2968 412.421C85.9177 413.814 81.3164 414.511 76.4929 414.511C66.3383 414.511 58.405 411.281 52.6931 404.822C47.0446 398.362 44.2203 387.597 44.2203 372.525C44.2203 358.34 47.0129 347.986 52.5979 341.463C58.2464 334.877 65.7989 331.584 75.2553 331.584C81.6019 331.584 86.8062 332.978 90.868 335.764C94.9933 338.55 97.9128 342.572 99.6264 347.828L141.228 340.418C141.137 340.095 141.044 339.774 140.95 339.455C138.414 330.895 134.699 323.807 129.805 318.191C124.791 312.301 118.444 307.964 110.765 305.177C103.149 302.391 91.6296 300.998 76.2073 300.998C60.2138 300.998 47.4889 303.246 38.0324 307.742C25.9103 313.568 16.7077 322.117 10.4246 333.389C4.14142 344.598 0.999837 357.802 0.999837 373C0.999837 387.438 3.85582 400.23 9.56778 411.376C15.3432 422.521 23.4351 430.912 33.8436 436.548C44.3155 442.184 57.8338 445.002 74.3985 445.002C87.8534 445.002 99.4677 443.451 109.241 440.348C119.079 437.182 130.376 431.26 143.132 422.585V363.216H76.4929V392.188H105.338ZM245.868 442.628L239.013 419.64H189.891L183.131 442.628H139.054L191.509 303.372H238.537L288.818 436.855V303.372H345.557L367.453 388.103L389.253 303.372H445.802V442.628H410.578V336.429L383.256 442.628H351.364L324.137 336.429V442.628H245.868ZM245.122 443.625L238.268 420.638H190.639L183.88 443.625H137.61L190.817 302.375H239.23L287.818 431.365V302.375H346.331L367.45 384.1L388.478 302.375H446.801V443.625H409.578V344.327L384.031 443.625H350.588L325.137 344.354V443.625H245.122ZM214.547 339.469L199.22 389.528H229.969L214.547 339.469ZM214.55 342.873L200.571 388.531H228.616L214.55 342.873ZM456.717 302.375H574.289V334.102H501.937V354.239H569.053V384.637H501.937V410.093H576.383V443.625H456.717V302.375ZM500.937 411.091V383.639H568.053V355.237H500.937V333.104H573.289V303.372H457.717V442.628H575.383V411.091H500.937ZM740.217 437.228L740.215 437.229C729.682 443.097 716.587 446 700.982 446C685.144 446 671.94 443.484 661.419 438.396L661.416 438.395C650.941 433.298 642.455 425.237 635.956 414.258C629.432 403.237 626.202 389.497 626.202 373.095C626.202 350.171 632.607 332.19 645.535 319.29C658.462 306.392 676.419 300 699.268 300C722.676 300 740.859 306.29 753.666 319.003C766.468 331.65 772.81 349.348 772.81 371.955C772.81 388.334 770.033 401.87 764.412 412.506C758.863 423.065 750.791 431.31 740.217 437.228ZM763.528 412.041C769.049 401.592 771.81 388.23 771.81 371.955C771.81 349.537 765.527 332.123 752.96 319.711C740.394 307.235 722.497 300.998 699.268 300.998C676.611 300.998 658.935 307.33 646.242 319.996C633.549 332.661 627.202 350.361 627.202 373.095C627.202 389.37 630.407 402.922 636.817 413.751C643.227 424.58 651.573 432.495 661.855 437.498C672.2 442.501 685.242 445.002 700.982 445.002C716.467 445.002 729.383 442.121 739.728 436.358C750.136 430.532 758.069 422.426 763.528 412.041ZM719.939 343.359L719.931 343.351C714.879 337.52 707.999 334.577 699.173 334.577C690.746 334.577 684.051 337.538 678.989 343.442C673.956 349.31 671.327 359.175 671.327 373.285C671.327 387.264 673.923 397.068 678.893 402.938C683.948 408.833 690.797 411.803 699.554 411.803C708.582 411.803 715.451 408.885 720.304 403.134C725.138 397.406 727.685 386.925 727.685 371.385C727.685 358.376 725.033 349.108 719.939 343.359ZM678.134 403.587C672.93 397.444 670.327 387.343 670.327 373.285C670.327 359.1 672.961 348.936 678.229 342.793C683.497 336.651 690.478 333.579 699.173 333.579C708.248 333.579 715.42 336.619 720.688 342.698C726.019 348.714 728.685 358.277 728.685 371.385C728.685 386.964 726.146 397.761 721.069 403.777C715.991 409.793 708.82 412.801 699.554 412.801C690.541 412.801 683.401 409.729 678.134 403.587ZM755.813 302.375H803.119L833.793 400.222L864.001 302.375H1023.69V334.102H951.339V354.239H1018.45V384.637H951.339V410.093H1025.78V443.625H906.119V312.727L857.438 443.625H809.309L755.813 302.375ZM907.119 307.171V442.628H1024.79V411.091H950.339V383.639H1017.45V355.237H950.339V333.104H1022.69V303.372H864.74L833.8 403.587L802.384 303.372H757.26L810 442.628H856.743L907.119 307.171ZM1032.08 443.625V302.375H1104.96C1118.32 302.375 1128.63 303.515 1135.83 305.843C1143.08 308.191 1148.94 312.569 1153.38 318.948C1157.83 325.287 1160.03 333.001 1160.03 342.033C1160.03 349.903 1158.35 356.765 1154.94 362.579L1154.94 362.584C1151.55 368.304 1146.9 372.949 1140.98 376.514L1140.47 375.66C1146.24 372.177 1150.78 367.649 1154.08 362.076C1157.38 356.44 1159.03 349.759 1159.03 342.033C1159.03 333.168 1156.87 325.663 1152.56 319.521C1148.24 313.315 1142.56 309.072 1135.52 306.792C1128.47 304.512 1118.29 303.372 1104.96 303.372H1033.08V442.628H1076.4V386.109H1080.21C1084.14 386.109 1087.66 387.185 1090.77 389.338C1093.06 390.985 1095.66 394.563 1098.58 400.072L1121.62 442.628H1170.36L1149.51 402.257C1148.5 400.23 1146.46 397.349 1143.42 393.613C1140.44 389.877 1138.15 387.438 1136.56 386.299C1134.49 384.791 1131.34 383.284 1127.1 381.777C1126.53 381.574 1125.94 381.372 1125.33 381.169C1125.95 381.028 1126.56 380.884 1127.15 380.736C1132.7 379.354 1137.14 377.662 1140.47 375.66L1140.98 376.514C1137.84 378.407 1133.77 380.011 1128.81 381.339C1132.41 382.697 1135.21 384.077 1137.15 385.489C1138.86 386.717 1141.22 389.253 1144.19 392.983C1147.24 396.724 1149.33 399.675 1150.4 401.805C1150.4 401.807 1150.4 401.809 1150.41 401.811L1172 443.625H1121.02L1097.7 400.546L1097.7 400.538C1094.79 395.046 1092.28 391.656 1090.2 390.153C1087.26 388.124 1083.94 387.106 1080.21 387.106H1077.4V443.625H1032.08ZM1105.8 356.921L1105.81 356.918C1108.42 356.397 1110.53 355.076 1112.16 352.925L1112.16 352.918L1112.17 352.912C1113.87 350.748 1114.72 348.275 1114.72 345.453C1114.72 341.184 1113.37 338.039 1110.79 335.861C1109.53 334.799 1107.64 333.947 1105.05 333.365C1102.46 332.785 1099.23 332.487 1095.34 332.487H1077.4V358.799H1094.58C1096.42 358.799 1100.12 358.194 1105.79 356.923L1105.8 356.921ZM1076.4 359.796V331.489H1095.34C1103.21 331.489 1108.58 332.693 1111.43 335.099C1114.29 337.505 1115.72 340.957 1115.72 345.453C1115.72 348.493 1114.8 351.184 1112.95 353.527C1111.18 355.87 1108.86 357.327 1106.01 357.897C1100.36 359.163 1096.55 359.796 1094.58 359.796H1076.4Z" fill="#CD06FF"/>
</svg>
