<svg width="894" height="110" viewBox="0 0 894 110" fill="none" xmlns="http://www.w3.org/2000/svg">
<path d="M56.9194 69.8862V47.9941H107.164V92.855C97.5454 99.4106 89.0278 103.885 81.6108 106.277C74.2417 108.622 65.4849 109.794 55.3403 109.794C42.8511 109.794 32.6587 107.665 24.7632 103.406C16.9155 99.1475 10.8145 92.8071 6.45996 84.3853C2.15332 75.9634 0 66.2974 0 55.3872C0 43.9028 2.36865 33.9258 7.10596 25.4561C11.8433 16.9385 18.7817 10.4785 27.9214 6.07617C35.0513 2.67871 44.6455 0.97998 56.7041 0.97998C68.332 0.97998 77.0171 2.03271 82.7593 4.13818C88.5493 6.24365 93.3345 9.52148 97.1147 13.9717C100.943 18.374 103.814 23.9727 105.728 30.7676L74.3613 36.3662C73.0693 32.3945 70.8682 29.356 67.7578 27.2505C64.6953 25.145 60.7715 24.0923 55.9863 24.0923C48.8564 24.0923 43.1621 26.5806 38.9033 31.5571C34.6924 36.4858 32.5869 44.3096 32.5869 55.0283C32.5869 66.417 34.7163 74.5518 38.9751 79.4326C43.2817 84.3135 49.2632 86.7539 56.9194 86.7539C60.5562 86.7539 64.0254 86.2275 67.3271 85.1748C70.6289 84.1221 74.4092 82.3276 78.668 79.7915V69.8862H56.9194Z" fill="white"/>
<path d="M180.925 90.6299H143.888L138.792 108H105.559L145.108 2.77441H180.566L220.115 108H186.093L180.925 90.6299ZM174.106 67.8765L162.478 30.0498L150.922 67.8765H174.106Z" fill="white"/>
<path d="M219.946 2.77441H262.725L279.234 66.7998L295.671 2.77441H338.307V108H311.749V27.7529L291.149 108H267.104L246.575 27.7529V108H219.946V2.77441Z" fill="white"/>
<path d="M348.76 2.77441H435.898V25.2407H381.347V41.9648H431.95V63.4263H381.347V84.1699H437.477V108H348.76V2.77441Z" fill="white"/>
<path d="M479.487 55.459C479.487 38.2803 484.272 24.9058 493.842 15.3354C503.413 5.76514 516.739 0.97998 533.822 0.97998C551.336 0.97998 564.83 5.69336 574.305 15.1201C583.779 24.499 588.517 37.6582 588.517 54.5977C588.517 66.8955 586.435 76.9922 582.272 84.8877C578.157 92.7354 572.175 98.8604 564.328 103.263C556.528 107.617 546.79 109.794 535.114 109.794C523.247 109.794 513.414 107.904 505.614 104.124C497.862 100.344 491.57 94.3623 486.737 86.1797C481.904 77.9971 479.487 67.7568 479.487 55.459ZM512.002 55.6025C512.002 66.2256 513.964 73.8579 517.888 78.4995C521.86 83.1411 527.243 85.4619 534.038 85.4619C541.024 85.4619 546.431 83.189 550.259 78.6431C554.088 74.0972 556.002 65.9385 556.002 54.167C556.002 44.2617 553.992 37.0361 549.972 32.4902C546.001 27.8965 540.593 25.5996 533.751 25.5996C527.195 25.5996 521.931 27.9204 517.96 32.562C513.988 37.2036 512.002 44.8838 512.002 55.6025Z" fill="white"/>
<path d="M579.016 2.77441H613.039L636.725 78.4995L660.053 2.77441H693.071L654.024 108H618.781L579.016 2.77441Z" fill="white"/>
<path d="M693.475 2.77441H780.613V25.2407H726.062V41.9648H776.665V63.4263H726.062V84.1699H782.192V108H693.475V2.77441Z" fill="white"/>
<path d="M789.918 108V2.77441H844.11C854.159 2.77441 861.839 3.63574 867.151 5.3584C872.462 7.08105 876.745 10.2871 879.999 14.9766C883.253 19.6182 884.88 25.2886 884.88 31.9878C884.88 37.8257 883.636 42.874 881.147 47.1328C878.659 51.3438 875.238 54.7651 870.883 57.397C868.108 59.0718 864.304 60.4595 859.471 61.5601C863.346 62.8521 866.17 64.144 867.94 65.436C869.137 66.2974 870.859 68.1396 873.108 70.9629C875.405 73.7861 876.936 75.9634 877.702 77.4946L893.421 108H856.671L839.301 75.8438C837.1 71.6807 835.138 68.9771 833.415 67.7329C831.071 66.106 828.415 65.2925 825.448 65.2925H822.577V108H789.918ZM822.577 45.4102H836.286C837.77 45.4102 840.641 44.9316 844.9 43.9746C847.053 43.5439 848.8 42.4434 850.139 40.6729C851.527 38.9023 852.221 36.8687 852.221 34.5718C852.221 31.1743 851.144 28.5664 848.991 26.748C846.838 24.9297 842.794 24.0205 836.861 24.0205H822.577V45.4102Z" fill="white"/>
</svg>
