<svg width="152" height="133" viewBox="0 0 152 133" fill="none" xmlns="http://www.w3.org/2000/svg">
<path d="M5.60352 92.8027V72.7598H8.25586V80.9902H18.6738V72.7598H21.3262V92.8027H18.6738V83.3555H8.25586V92.8027H5.60352Z" fill="white"/>
<path d="M24.5254 85.543C24.5254 82.8542 25.2728 80.8626 26.7676 79.5684C28.0163 78.4928 29.5384 77.9551 31.334 77.9551C33.3301 77.9551 34.9616 78.6113 36.2285 79.9238C37.4954 81.2272 38.1289 83.0319 38.1289 85.3379C38.1289 87.2064 37.8464 88.6784 37.2812 89.7539C36.7253 90.8203 35.9095 91.6497 34.834 92.2422C33.7676 92.8346 32.6009 93.1309 31.334 93.1309C29.3014 93.1309 27.6562 92.4792 26.3984 91.1758C25.1497 89.8724 24.5254 87.9948 24.5254 85.543ZM27.0547 85.543C27.0547 87.4023 27.4603 88.7969 28.2715 89.7266C29.0827 90.6471 30.1035 91.1074 31.334 91.1074C32.5553 91.1074 33.5716 90.6426 34.3828 89.7129C35.194 88.7832 35.5996 87.3659 35.5996 85.4609C35.5996 83.6654 35.1895 82.3073 34.3691 81.3867C33.5579 80.457 32.5462 79.9922 31.334 79.9922C30.1035 79.9922 29.0827 80.4525 28.2715 81.373C27.4603 82.2936 27.0547 83.6836 27.0547 85.543Z" fill="white"/>
<path d="M41.041 78.2832H46.7148C48.1094 78.2832 49.1439 78.4017 49.8184 78.6387C50.502 78.8665 51.0853 79.2904 51.5684 79.9102C52.0605 80.5299 52.3066 81.2728 52.3066 82.1387C52.3066 82.8314 52.1608 83.4375 51.8691 83.957C51.5866 84.4674 51.1582 84.8958 50.584 85.2422C51.2676 85.4701 51.8327 85.8984 52.2793 86.5273C52.735 87.1471 52.9629 87.8854 52.9629 88.7422C52.8717 90.1185 52.3796 91.1393 51.4863 91.8047C50.5931 92.4701 49.2943 92.8027 47.5898 92.8027H41.041V78.2832ZM43.502 84.3945H46.127C47.1751 84.3945 47.8952 84.3398 48.2871 84.2305C48.679 84.1211 49.0299 83.9023 49.3398 83.5742C49.6497 83.237 49.8047 82.8359 49.8047 82.3711C49.8047 81.6055 49.5312 81.0723 48.9844 80.7715C48.4466 80.4707 47.5215 80.3203 46.209 80.3203H43.502V84.3945ZM43.502 90.7793H46.7422C48.1367 90.7793 49.0938 90.6198 49.6133 90.3008C50.1328 89.9727 50.4062 89.4121 50.4336 88.6191C50.4336 88.1543 50.2832 87.7259 49.9824 87.334C49.6816 86.9329 49.2897 86.6823 48.8066 86.582C48.3236 86.4727 47.5488 86.418 46.4824 86.418H43.502V90.7793Z" fill="white"/>
<path d="M65.5137 88.127L68.0566 88.4414C67.6556 89.9271 66.9128 91.0801 65.8281 91.9004C64.7435 92.7207 63.3581 93.1309 61.6719 93.1309C59.5482 93.1309 57.862 92.4792 56.6133 91.1758C55.3737 89.8633 54.7539 88.0267 54.7539 85.666C54.7539 83.2233 55.3828 81.3275 56.6406 79.9785C57.8984 78.6296 59.5299 77.9551 61.5352 77.9551C63.4766 77.9551 65.0625 78.6159 66.293 79.9375C67.5234 81.2591 68.1387 83.1185 68.1387 85.5156C68.1387 85.6615 68.1341 85.8802 68.125 86.1719H57.2969C57.388 87.7669 57.8392 88.9883 58.6504 89.8359C59.4616 90.6836 60.4733 91.1074 61.6855 91.1074C62.5879 91.1074 63.3581 90.8704 63.9961 90.3965C64.6341 89.9225 65.14 89.166 65.5137 88.127ZM57.4336 84.1484H65.541C65.4316 82.9271 65.1217 82.0111 64.6113 81.4004C63.8275 80.4525 62.8112 79.9785 61.5625 79.9785C60.4323 79.9785 59.4798 80.3568 58.7051 81.1133C57.9395 81.8698 57.5156 82.8815 57.4336 84.1484Z" fill="white"/>
<path d="M71.1602 78.2832H73.6211V89.3574L80.4434 78.2832H83.0957V92.8027H80.6348V81.7969L73.8125 92.8027H71.1602V78.2832ZM79.7051 72.7871H81.3867C81.25 73.9264 80.8307 74.8014 80.1289 75.4121C79.4362 76.0228 78.5111 76.3281 77.3535 76.3281C76.1869 76.3281 75.2526 76.0273 74.5508 75.4258C73.8581 74.8151 73.4434 73.9355 73.3066 72.7871H74.9883C75.1159 73.4069 75.3665 73.8717 75.7402 74.1816C76.123 74.4824 76.6335 74.6328 77.2715 74.6328C78.0098 74.6328 78.5658 74.487 78.9395 74.1953C79.3223 73.8945 79.5775 73.4251 79.7051 72.7871Z" fill="white"/>
<path d="M86.8828 78.2832H89.3438V90.7656H94.9492V78.2832H97.4102V90.7656H103.029V78.2832H105.477V92.8027H86.8828V78.2832Z" fill="white"/>
<path d="M118.752 91.0117C117.84 91.7865 116.961 92.3333 116.113 92.6523C115.275 92.9714 114.372 93.1309 113.406 93.1309C111.811 93.1309 110.585 92.7435 109.729 91.9688C108.872 91.1849 108.443 90.1868 108.443 88.9746C108.443 88.2637 108.603 87.6165 108.922 87.0332C109.25 86.4408 109.674 85.9668 110.193 85.6113C110.722 85.2559 111.314 84.987 111.971 84.8047C112.454 84.6771 113.183 84.554 114.158 84.4355C116.145 84.1986 117.608 83.916 118.547 83.5879C118.556 83.2507 118.561 83.0365 118.561 82.9453C118.561 81.9427 118.328 81.2363 117.863 80.8262C117.234 80.2702 116.3 79.9922 115.061 79.9922C113.903 79.9922 113.046 80.1973 112.49 80.6074C111.943 81.0085 111.538 81.724 111.273 82.7539L108.867 82.4258C109.086 81.3958 109.446 80.5664 109.947 79.9375C110.449 79.2995 111.173 78.8118 112.121 78.4746C113.069 78.1283 114.167 77.9551 115.416 77.9551C116.656 77.9551 117.663 78.1009 118.438 78.3926C119.212 78.6842 119.782 79.0534 120.146 79.5C120.511 79.9375 120.766 80.4935 120.912 81.168C120.994 81.5872 121.035 82.3438 121.035 83.4375V86.7188C121.035 89.0065 121.085 90.4557 121.186 91.0664C121.295 91.668 121.505 92.2467 121.814 92.8027H119.244C118.989 92.2923 118.825 91.6953 118.752 91.0117ZM118.547 85.5156C117.654 85.8802 116.314 86.1901 114.527 86.4453C113.516 86.5911 112.8 86.7552 112.381 86.9375C111.962 87.1198 111.638 87.3887 111.41 87.7441C111.182 88.0905 111.068 88.4779 111.068 88.9062C111.068 89.5625 111.314 90.1094 111.807 90.5469C112.308 90.9844 113.037 91.2031 113.994 91.2031C114.942 91.2031 115.785 90.998 116.523 90.5879C117.262 90.1686 117.804 89.599 118.15 88.8789C118.415 88.3229 118.547 87.5026 118.547 86.418V85.5156Z" fill="white"/>
<path d="M136.293 78.2832V92.8027H133.846V87.1426H132.424C131.558 87.1426 130.911 87.2565 130.482 87.4844C130.063 87.7031 129.448 88.4186 128.637 89.6309L126.49 92.8027H123.441L126.094 88.8926C126.905 87.6986 127.712 87.0241 128.514 86.8691C127.11 86.6777 126.066 86.1719 125.383 85.3516C124.708 84.5312 124.371 83.5879 124.371 82.5215C124.371 81.2637 124.813 80.2428 125.697 79.459C126.59 78.6751 127.88 78.2832 129.566 78.2832H136.293ZM133.846 80.3203H130.346C128.878 80.3203 127.93 80.5482 127.502 81.0039C127.083 81.4596 126.873 81.9928 126.873 82.6035C126.873 83.4694 127.183 84.1074 127.803 84.5176C128.432 84.9186 129.539 85.1191 131.125 85.1191H133.846V80.3203Z" fill="white"/>
<path d="M10.9629 125.012C10.0514 125.786 9.17188 126.333 8.32422 126.652C7.48568 126.971 6.58333 127.131 5.61719 127.131C4.02214 127.131 2.79622 126.743 1.93945 125.969C1.08268 125.185 0.654297 124.187 0.654297 122.975C0.654297 122.264 0.813802 121.617 1.13281 121.033C1.46094 120.441 1.88477 119.967 2.4043 119.611C2.93294 119.256 3.52539 118.987 4.18164 118.805C4.66471 118.677 5.39388 118.554 6.36914 118.436C8.35612 118.199 9.81901 117.916 10.7578 117.588C10.7669 117.251 10.7715 117.036 10.7715 116.945C10.7715 115.943 10.5391 115.236 10.0742 114.826C9.44531 114.27 8.51107 113.992 7.27148 113.992C6.11393 113.992 5.25716 114.197 4.70117 114.607C4.1543 115.008 3.7487 115.724 3.48438 116.754L1.07812 116.426C1.29688 115.396 1.6569 114.566 2.1582 113.938C2.65951 113.299 3.38411 112.812 4.33203 112.475C5.27995 112.128 6.37826 111.955 7.62695 111.955C8.86654 111.955 9.8737 112.101 10.6484 112.393C11.4232 112.684 11.9928 113.053 12.3574 113.5C12.722 113.938 12.9772 114.493 13.123 115.168C13.2051 115.587 13.2461 116.344 13.2461 117.438V120.719C13.2461 123.007 13.2962 124.456 13.3965 125.066C13.5059 125.668 13.7155 126.247 14.0254 126.803H11.4551C11.1999 126.292 11.0358 125.695 10.9629 125.012ZM10.7578 119.516C9.86458 119.88 8.52474 120.19 6.73828 120.445C5.72656 120.591 5.01107 120.755 4.5918 120.938C4.17253 121.12 3.84896 121.389 3.62109 121.744C3.39323 122.09 3.2793 122.478 3.2793 122.906C3.2793 123.562 3.52539 124.109 4.01758 124.547C4.51888 124.984 5.24805 125.203 6.20508 125.203C7.15299 125.203 7.99609 124.998 8.73438 124.588C9.47266 124.169 10.015 123.599 10.3613 122.879C10.6257 122.323 10.7578 121.503 10.7578 120.418V119.516Z" fill="white"/>
<path d="M17.0879 112.283H28.5449V126.803H26.084V114.32H19.5488V126.803H17.0879V112.283Z" fill="white"/>
<path d="M32.2637 112.283H43.7207V126.803H41.2598V114.32H34.7246V126.803H32.2637V112.283Z" fill="white"/>
<path d="M56.9004 125.012C55.9889 125.786 55.1094 126.333 54.2617 126.652C53.4232 126.971 52.5208 127.131 51.5547 127.131C49.9596 127.131 48.7337 126.743 47.877 125.969C47.0202 125.185 46.5918 124.187 46.5918 122.975C46.5918 122.264 46.7513 121.617 47.0703 121.033C47.3984 120.441 47.8223 119.967 48.3418 119.611C48.8704 119.256 49.4629 118.987 50.1191 118.805C50.6022 118.677 51.3314 118.554 52.3066 118.436C54.2936 118.199 55.7565 117.916 56.6953 117.588C56.7044 117.251 56.709 117.036 56.709 116.945C56.709 115.943 56.4766 115.236 56.0117 114.826C55.3828 114.27 54.4486 113.992 53.209 113.992C52.0514 113.992 51.1947 114.197 50.6387 114.607C50.0918 115.008 49.6862 115.724 49.4219 116.754L47.0156 116.426C47.2344 115.396 47.5944 114.566 48.0957 113.938C48.597 113.299 49.3216 112.812 50.2695 112.475C51.2174 112.128 52.3158 111.955 53.5645 111.955C54.804 111.955 55.8112 112.101 56.5859 112.393C57.3607 112.684 57.9303 113.053 58.2949 113.5C58.6595 113.938 58.9147 114.493 59.0605 115.168C59.1426 115.587 59.1836 116.344 59.1836 117.438V120.719C59.1836 123.007 59.2337 124.456 59.334 125.066C59.4434 125.668 59.653 126.247 59.9629 126.803H57.3926C57.1374 126.292 56.9733 125.695 56.9004 125.012ZM56.6953 119.516C55.8021 119.88 54.4622 120.19 52.6758 120.445C51.6641 120.591 50.9486 120.755 50.5293 120.938C50.11 121.12 49.7865 121.389 49.5586 121.744C49.3307 122.09 49.2168 122.478 49.2168 122.906C49.2168 123.562 49.4629 124.109 49.9551 124.547C50.4564 124.984 51.1855 125.203 52.1426 125.203C53.0905 125.203 53.9336 124.998 54.6719 124.588C55.4102 124.169 55.9525 123.599 56.2988 122.879C56.5632 122.323 56.6953 121.503 56.6953 120.418V119.516Z" fill="white"/>
<path d="M63.0117 132.367V112.283H65.2539V114.17C65.7826 113.432 66.3796 112.88 67.0449 112.516C67.7103 112.142 68.5169 111.955 69.4648 111.955C70.7044 111.955 71.7982 112.274 72.7461 112.912C73.694 113.55 74.4095 114.452 74.8926 115.619C75.3756 116.777 75.6172 118.048 75.6172 119.434C75.6172 120.919 75.3483 122.259 74.8105 123.453C74.2819 124.638 73.5072 125.549 72.4863 126.188C71.4746 126.816 70.4082 127.131 69.2871 127.131C68.4668 127.131 67.7285 126.958 67.0723 126.611C66.4251 126.265 65.8919 125.827 65.4727 125.299V132.367H63.0117ZM65.2402 119.625C65.2402 121.493 65.6185 122.874 66.375 123.768C67.1315 124.661 68.0475 125.107 69.123 125.107C70.2168 125.107 71.151 124.647 71.9258 123.727C72.7096 122.797 73.1016 121.361 73.1016 119.42C73.1016 117.57 72.7188 116.184 71.9531 115.264C71.1966 114.343 70.2897 113.883 69.2324 113.883C68.1842 113.883 67.2546 114.375 66.4434 115.359C65.6413 116.335 65.2402 117.757 65.2402 119.625Z" fill="white"/>
<path d="M88.0723 125.012C87.1608 125.786 86.2812 126.333 85.4336 126.652C84.5951 126.971 83.6927 127.131 82.7266 127.131C81.1315 127.131 79.9056 126.743 79.0488 125.969C78.1921 125.185 77.7637 124.187 77.7637 122.975C77.7637 122.264 77.9232 121.617 78.2422 121.033C78.5703 120.441 78.9941 119.967 79.5137 119.611C80.0423 119.256 80.6348 118.987 81.291 118.805C81.7741 118.677 82.5033 118.554 83.4785 118.436C85.4655 118.199 86.9284 117.916 87.8672 117.588C87.8763 117.251 87.8809 117.036 87.8809 116.945C87.8809 115.943 87.6484 115.236 87.1836 114.826C86.5547 114.27 85.6204 113.992 84.3809 113.992C83.2233 113.992 82.3665 114.197 81.8105 114.607C81.2637 115.008 80.8581 115.724 80.5938 116.754L78.1875 116.426C78.4062 115.396 78.7663 114.566 79.2676 113.938C79.7689 113.299 80.4935 112.812 81.4414 112.475C82.3893 112.128 83.4876 111.955 84.7363 111.955C85.9759 111.955 86.9831 112.101 87.7578 112.393C88.5326 112.684 89.1022 113.053 89.4668 113.5C89.8314 113.938 90.0866 114.493 90.2324 115.168C90.3145 115.587 90.3555 116.344 90.3555 117.438V120.719C90.3555 123.007 90.4056 124.456 90.5059 125.066C90.6152 125.668 90.8249 126.247 91.1348 126.803H88.5645C88.3092 126.292 88.1452 125.695 88.0723 125.012ZM87.8672 119.516C86.974 119.88 85.6341 120.19 83.8477 120.445C82.8359 120.591 82.1204 120.755 81.7012 120.938C81.2819 121.12 80.9583 121.389 80.7305 121.744C80.5026 122.09 80.3887 122.478 80.3887 122.906C80.3887 123.562 80.6348 124.109 81.127 124.547C81.6283 124.984 82.3574 125.203 83.3145 125.203C84.2624 125.203 85.1055 124.998 85.8438 124.588C86.582 124.169 87.1244 123.599 87.4707 122.879C87.735 122.323 87.8672 121.503 87.8672 120.418V119.516Z" fill="white"/>
<path d="M92.2285 112.283H104.027V114.32H99.3516V126.803H96.9043V114.32H92.2285V112.283Z" fill="white"/>
<path d="M106.598 132.395L106.324 130.084C106.862 130.23 107.331 130.303 107.732 130.303C108.279 130.303 108.717 130.212 109.045 130.029C109.373 129.847 109.642 129.592 109.852 129.264C110.007 129.018 110.257 128.407 110.604 127.432C110.649 127.295 110.722 127.094 110.822 126.83L105.312 112.283H107.965L110.986 120.691C111.378 121.758 111.729 122.879 112.039 124.055C112.322 122.924 112.659 121.822 113.051 120.746L116.154 112.283H118.615L113.092 127.049C112.499 128.644 112.039 129.742 111.711 130.344C111.273 131.155 110.772 131.747 110.207 132.121C109.642 132.504 108.967 132.695 108.184 132.695C107.71 132.695 107.181 132.595 106.598 132.395Z" fill="white"/>
<path d="M120.379 132.367V112.283H122.621V114.17C123.15 113.432 123.747 112.88 124.412 112.516C125.077 112.142 125.884 111.955 126.832 111.955C128.072 111.955 129.165 112.274 130.113 112.912C131.061 113.55 131.777 114.452 132.26 115.619C132.743 116.777 132.984 118.048 132.984 119.434C132.984 120.919 132.715 122.259 132.178 123.453C131.649 124.638 130.874 125.549 129.854 126.188C128.842 126.816 127.775 127.131 126.654 127.131C125.834 127.131 125.096 126.958 124.439 126.611C123.792 126.265 123.259 125.827 122.84 125.299V132.367H120.379ZM122.607 119.625C122.607 121.493 122.986 122.874 123.742 123.768C124.499 124.661 125.415 125.107 126.49 125.107C127.584 125.107 128.518 124.647 129.293 123.727C130.077 122.797 130.469 121.361 130.469 119.42C130.469 117.57 130.086 116.184 129.32 115.264C128.564 114.343 127.657 113.883 126.6 113.883C125.551 113.883 124.622 114.375 123.811 115.359C123.008 116.335 122.607 117.757 122.607 119.625Z" fill="white"/>
<path d="M145.439 125.012C144.528 125.786 143.648 126.333 142.801 126.652C141.962 126.971 141.06 127.131 140.094 127.131C138.499 127.131 137.273 126.743 136.416 125.969C135.559 125.185 135.131 124.187 135.131 122.975C135.131 122.264 135.29 121.617 135.609 121.033C135.938 120.441 136.361 119.967 136.881 119.611C137.41 119.256 138.002 118.987 138.658 118.805C139.141 118.677 139.87 118.554 140.846 118.436C142.833 118.199 144.296 117.916 145.234 117.588C145.243 117.251 145.248 117.036 145.248 116.945C145.248 115.943 145.016 115.236 144.551 114.826C143.922 114.27 142.988 113.992 141.748 113.992C140.59 113.992 139.734 114.197 139.178 114.607C138.631 115.008 138.225 115.724 137.961 116.754L135.555 116.426C135.773 115.396 136.133 114.566 136.635 113.938C137.136 113.299 137.861 112.812 138.809 112.475C139.757 112.128 140.855 111.955 142.104 111.955C143.343 111.955 144.35 112.101 145.125 112.393C145.9 112.684 146.469 113.053 146.834 113.5C147.199 113.938 147.454 114.493 147.6 115.168C147.682 115.587 147.723 116.344 147.723 117.438V120.719C147.723 123.007 147.773 124.456 147.873 125.066C147.982 125.668 148.192 126.247 148.502 126.803H145.932C145.676 126.292 145.512 125.695 145.439 125.012ZM145.234 119.516C144.341 119.88 143.001 120.19 141.215 120.445C140.203 120.591 139.488 120.755 139.068 120.938C138.649 121.12 138.326 121.389 138.098 121.744C137.87 122.09 137.756 122.478 137.756 122.906C137.756 123.562 138.002 124.109 138.494 124.547C138.995 124.984 139.725 125.203 140.682 125.203C141.63 125.203 142.473 124.998 143.211 124.588C143.949 124.169 144.492 123.599 144.838 122.879C145.102 122.323 145.234 121.503 145.234 120.418V119.516Z" fill="white"/>
<path d="M2.65625 0.853516H15.0488L31.2207 24.6133V0.853516H43.7305V43.8027H31.2207L15.1367 20.2188V43.8027H2.65625V0.853516Z" fill="#CD06FF"/>
<path d="M52.5195 0.853516H88.0859V10.0234H65.8203V16.8496H86.4746V25.6094H65.8203V34.0762H88.7305V43.8027H52.5195V0.853516Z" fill="#CD06FF"/>
<path d="M91.4844 0.853516H104.082L108.623 24.8477L115.244 0.853516H127.812L134.463 24.8477L139.004 0.853516H151.543L142.08 43.8027H129.072L121.543 16.7617L114.043 43.8027H101.035L91.4844 0.853516Z" fill="#CD06FF"/>
</svg>
